<svg xmlns="http://www.w3.org/2000/svg" xmlns:xlink="http://www.w3.org/1999/xlink" width="500" zoomAndPan="magnify" viewBox="0 0 375 374.999991" height="500" preserveAspectRatio="xMidYMid meet" version="1.0"><defs><g/><clipPath id="a19a917fb7"><path d="M 124 123 L 197 123 L 197 184 L 124 184 Z M 124 123 " clip-rule="nonzero"/></clipPath><clipPath id="67ac277b92"><path d="M 56.089844 145.195312 L 185.722656 116.585938 L 210.773438 230.105469 L 81.144531 258.710938 Z M 56.089844 145.195312 " clip-rule="nonzero"/></clipPath><clipPath id="99de9e13be"><path d="M 56.089844 145.195312 L 185.722656 116.585938 L 210.773438 230.105469 L 81.144531 258.710938 Z M 56.089844 145.195312 " clip-rule="nonzero"/></clipPath><clipPath id="4b44b644f9"><path d="M 79 152 L 105 152 L 105 206 L 79 206 Z M 79 152 " clip-rule="nonzero"/></clipPath><clipPath id="bd2cdde1ea"><path d="M 56.089844 145.195312 L 185.722656 116.585938 L 210.773438 230.105469 L 81.144531 258.710938 Z M 56.089844 145.195312 " clip-rule="nonzero"/></clipPath><clipPath id="c9077dd314"><path d="M 56.089844 145.195312 L 185.722656 116.585938 L 210.773438 230.105469 L 81.144531 258.710938 Z M 56.089844 145.195312 " clip-rule="nonzero"/></clipPath><clipPath id="722405c634"><path d="M 64 138 L 153 138 L 153 253 L 64 253 Z M 64 138 " clip-rule="nonzero"/></clipPath><clipPath id="fdf224bb33"><path d="M 56.089844 145.195312 L 185.722656 116.585938 L 210.773438 230.105469 L 81.144531 258.710938 Z M 56.089844 145.195312 " clip-rule="nonzero"/></clipPath><clipPath id="96df79f358"><path d="M 56.089844 145.195312 L 185.722656 116.585938 L 210.773438 230.105469 L 81.144531 258.710938 Z M 56.089844 145.195312 " clip-rule="nonzero"/></clipPath><clipPath id="4eb1c197a8"><rect x="0" width="123" y="0" height="41"/></clipPath></defs><g clip-path="url(#a19a917fb7)"><g clip-path="url(#67ac277b92)"><g clip-path="url(#99de9e13be)"><path fill="#09264d" d="M 124.695312 151.324219 C 126.410156 151.046875 128.019531 150.511719 129.570312 149.90625 C 131.105469 149.277344 132.523438 148.472656 133.84375 147.597656 C 136.441406 145.757812 138.519531 143.449219 139.976562 140.808594 C 140.695312 139.476562 141.300781 138.09375 141.785156 136.648438 C 141.90625 136.285156 142.027344 135.9375 142.125 135.5625 L 142.277344 135.011719 L 142.359375 134.734375 L 142.398438 134.605469 L 142.519531 134.292969 L 142.90625 133.425781 L 143.226562 132.765625 C 143.453125 132.332031 143.675781 131.898438 143.933594 131.460938 C 144.460938 130.582031 144.953125 129.722656 146.019531 128.667969 C 146.25 128.425781 146.640625 128.085938 146.75 128 L 147.285156 127.546875 C 147.726562 127.203125 148.144531 126.917969 148.554688 126.625 C 150.253906 125.488281 152.128906 124.539062 154.15625 123.929688 C 158.210938 122.671875 162.71875 122.863281 166.597656 124.140625 C 170.515625 125.390625 173.875 127.5 176.808594 129.867188 C 179.734375 132.261719 182.25 134.949219 184.511719 137.765625 C 185.667969 139.152344 186.695312 140.625 187.71875 142.085938 C 188.742188 143.546875 189.667969 145.058594 190.589844 146.5625 L 190.753906 146.824219 L 190.761719 146.847656 C 191.019531 147.359375 191.460938 148.242188 191.785156 148.933594 C 192.125 149.671875 192.417969 150.425781 192.710938 151.171875 C 193.28125 152.671875 193.792969 154.183594 194.203125 155.707031 C 194.613281 157.238281 194.96875 158.773438 195.246094 160.324219 C 195.488281 161.875 195.707031 163.421875 195.832031 164.976562 C 195.925781 165.746094 195.960938 166.523438 195.992188 167.300781 C 196.03125 168.074219 196.082031 168.847656 196.042969 169.625 C 196.015625 171.175781 195.976562 172.714844 195.828125 174.246094 C 195.734375 175.777344 195.441406 177.289062 195.210938 178.796875 C 195.121094 179.546875 194.90625 180.289062 194.734375 181.03125 L 194.175781 183.238281 C 193.96875 181.71875 193.863281 180.230469 193.652344 178.75 L 193.34375 176.546875 C 193.265625 175.8125 193.074219 175.082031 192.964844 174.363281 C 192.753906 172.914062 192.425781 171.476562 192.101562 170.0625 C 191.960938 169.351562 191.71875 168.660156 191.574219 167.957031 C 191.398438 167.257812 191.234375 166.554688 191.007812 165.867188 C 190.617188 164.484375 190.152344 163.132812 189.667969 161.792969 C 189.152344 160.464844 188.664062 159.140625 188.085938 157.851562 C 187.503906 156.574219 186.929688 155.308594 186.265625 154.089844 C 185.945312 153.480469 185.589844 152.882812 185.253906 152.300781 C 184.890625 151.667969 184.613281 151.246094 184.121094 150.46875 L 184.296875 150.746094 C 182.308594 148.105469 180.292969 145.527344 178.148438 143.128906 C 177.09375 141.914062 175.992188 140.761719 174.855469 139.667969 C 173.742188 138.554688 172.582031 137.535156 171.394531 136.5625 C 169.011719 134.671875 166.5 133.089844 163.925781 132.179688 C 161.355469 131.25 158.753906 131 156.207031 131.542969 C 154.933594 131.816406 153.664062 132.273438 152.453125 132.921875 L 151.585938 133.421875 C 151.472656 133.476562 151.273438 133.621094 151.097656 133.726562 C 150.851562 133.886719 150.9375 133.847656 150.867188 133.90625 C 150.675781 134.003906 150.195312 134.582031 149.820312 135.136719 C 149.621094 135.425781 149.429688 135.734375 149.234375 136.042969 L 148.785156 136.800781 L 148.75 136.871094 L 148.726562 136.914062 L 148.71875 136.925781 C 148.746094 136.859375 148.652344 137.097656 148.773438 136.785156 L 148.703125 136.949219 L 148.550781 137.273438 L 148.265625 137.925781 C 148.074219 138.359375 147.851562 138.777344 147.632812 139.203125 C 146.757812 140.890625 145.726562 142.519531 144.464844 143.976562 C 142.011719 146.921875 138.804688 149.253906 135.300781 150.492188 C 133.566406 151.140625 131.757812 151.5 129.972656 151.652344 C 128.191406 151.808594 126.390625 151.726562 124.695312 151.324219 Z M 124.695312 151.324219 " fill-opacity="1" fill-rule="nonzero"/></g></g></g><g clip-path="url(#4b44b644f9)"><g clip-path="url(#bd2cdde1ea)"><g clip-path="url(#c9077dd314)"><path fill="#5ce1e6" d="M 102.894531 158.121094 C 102.601562 157.902344 99.304688 155.367188 99.304688 155.367188 L 99.296875 155.375 L 98.503906 154.769531 L 97.9375 154.378906 L 97.523438 154.117188 C 97.324219 153.992188 97.128906 153.851562 96.921875 153.75 L 96.636719 153.589844 C 96.054688 153.257812 95.359375 152.96875 94.570312 152.734375 C 93.679688 152.472656 92.835938 152.421875 92.09375 152.582031 C 91.964844 152.613281 91.835938 152.648438 91.714844 152.691406 L 91.339844 152.8125 C 91.082031 152.945312 90.910156 153.023438 90.738281 153.105469 C 90.632812 153.144531 90.5625 153.179688 90.5 153.210938 L 89.097656 154.167969 L 87.625 155.515625 L 85.976562 157.476562 C 85.710938 157.789062 85.359375 158.339844 84.980469 158.917969 C 84.65625 159.429688 84.320312 159.9375 83.984375 160.425781 C 82.894531 162.023438 82.140625 164.074219 81.503906 166.035156 C 80.789062 168.101562 80.363281 170.277344 79.957031 172.925781 C 79.839844 174.121094 79.730469 175.316406 79.652344 176.515625 L 79.652344 180.285156 L 79.953125 184.066406 L 80.566406 188.320312 C 80.617188 188.8125 80.785156 189.480469 80.960938 190.191406 C 81.105469 190.785156 81.246094 191.382812 81.367188 191.976562 L 81.757812 193.671875 L 82.335938 195.511719 L 83.574219 199.386719 C 84.117188 200.710938 84.652344 202.039062 85.171875 203.390625 L 85.851562 205.179688 L 86.105469 205.699219 C 95.285156 205.675781 91.546875 181.878906 91.820312 180.300781 C 94.386719 165.644531 109.105469 162.8125 102.894531 158.121094 Z M 102.894531 158.121094 " fill-opacity="1" fill-rule="nonzero"/></g></g></g><g clip-path="url(#722405c634)"><g clip-path="url(#fdf224bb33)"><g clip-path="url(#96df79f358)"><path fill="#09264d" d="M 152.449219 145.421875 C 151.863281 146.394531 151.191406 147.3125 150.480469 148.207031 C 149.757812 149.09375 149.019531 149.96875 148.214844 150.78125 C 147.433594 151.644531 146.539062 152.371094 145.691406 153.15625 C 144.820312 153.929688 143.855469 154.574219 142.925781 155.296875 C 141.96875 155.972656 140.921875 156.523438 139.90625 157.136719 C 138.859375 157.679688 137.746094 158.121094 136.648438 158.617188 C 135.546875 159.058594 134.363281 159.324219 133.195312 159.683594 C 132.039062 160.070312 130.800781 160.089844 129.585938 160.273438 C 128.367188 160.492188 127.144531 160.390625 125.910156 160.347656 C 124.671875 160.3125 123.429688 160.269531 122.242188 159.953125 C 121.042969 159.695312 119.808594 159.492188 118.621094 159.164062 L 115.183594 157.855469 C 114.003906 157.453125 112.960938 156.855469 111.921875 156.234375 L 108.765625 154.402344 C 107.757812 153.746094 106.847656 152.976562 105.890625 152.257812 L 103.035156 150.066406 L 103.242188 150.242188 L 102.320312 149.53125 L 101.519531 148.976562 C 100.957031 148.636719 100.421875 148.265625 99.859375 147.976562 C 98.742188 147.332031 97.578125 146.875 96.414062 146.523438 C 94.09375 145.84375 91.792969 145.835938 89.660156 146.542969 C 89.109375 146.632812 88.609375 146.960938 88.085938 147.191406 C 87.5625 147.417969 87.039062 147.660156 86.558594 148.054688 L 85.0625 149.078125 L 83.652344 150.367188 L 82.949219 151.003906 L 82.308594 151.773438 L 81.023438 153.304688 C 80.164062 154.332031 79.480469 155.574219 78.683594 156.699219 C 77.164062 158.941406 76.210938 161.390625 75.34375 164.019531 C 74.445312 166.609375 73.953125 169.363281 73.515625 172.117188 C 73.390625 173.507812 73.265625 174.90625 73.175781 176.308594 L 73.175781 180.539062 L 73.515625 184.785156 L 74.128906 189.035156 C 74.285156 190.457031 74.734375 191.84375 75.019531 193.25 L 75.5 195.371094 L 76.148438 197.445312 L 77.484375 201.605469 C 78.039062 202.957031 78.585938 204.3125 79.109375 205.683594 L 79.902344 207.746094 L 80.851562 209.742188 L 82.757812 213.746094 C 83.285156 214.949219 84.210938 216.363281 84.90625 217.660156 L 87.140625 221.660156 C 90.207031 226.847656 93.167969 232.125 96.335938 237.332031 C 97.945312 239.90625 99.402344 242.621094 101.035156 245.175781 C 102.707031 247.691406 104.34375 250.257812 105.984375 252.890625 C 103.84375 250.730469 101.699219 248.523438 99.589844 246.261719 C 97.488281 243.984375 95.605469 241.585938 93.65625 239.214844 C 91.730469 236.824219 89.742188 234.476562 87.929688 231.976562 L 82.398438 224.546875 C 80.613281 222.007812 78.917969 219.65625 77.191406 216.878906 L 74.832031 212.796875 L 73.644531 210.746094 L 72.617188 208.617188 C 71.914062 207.191406 71.246094 205.753906 70.585938 204.3125 C 69.992188 202.835938 69.460938 201.328125 68.902344 199.835938 L 68.078125 197.582031 L 67.421875 195.265625 C 67.019531 193.710938 66.46875 192.191406 66.199219 190.597656 C 65.898438 189.007812 65.550781 187.417969 65.296875 185.820312 L 64.832031 180.953125 C 64.769531 179.316406 64.777344 177.679688 64.75 176.042969 C 64.824219 174.398438 64.941406 172.75 65.082031 171.109375 C 65.53125 167.839844 66.058594 164.542969 67.148438 161.351562 C 68.210938 158.21875 69.582031 154.960938 71.523438 152.164062 C 72.496094 150.800781 73.328125 149.382812 74.4375 148.078125 L 76.125 146.132812 L 76.976562 145.167969 L 77.972656 144.28125 C 80.441406 141.804688 83.820312 139.851562 87.496094 138.832031 C 91.21875 137.796875 95.289062 138.089844 98.746094 139.320312 C 100.480469 139.925781 102.117188 140.707031 103.609375 141.652344 C 104.375 142.09375 105.074219 142.621094 105.773438 143.15625 L 106.785156 143.984375 C 107.117188 144.28125 107.453125 144.578125 107.613281 144.742188 L 107.824219 144.921875 L 110.164062 147.03125 C 110.960938 147.726562 111.714844 148.484375 112.535156 149.132812 L 115.097656 150.890625 C 115.949219 151.5 116.800781 152.101562 117.742188 152.496094 L 120.488281 153.902344 C 121.429688 154.273438 122.414062 154.535156 123.382812 154.875 C 124.34375 155.265625 125.34375 155.390625 126.355469 155.53125 C 127.359375 155.691406 128.378906 155.90625 129.402344 155.820312 C 130.421875 155.757812 131.476562 155.929688 132.503906 155.730469 C 133.519531 155.558594 134.578125 155.492188 135.597656 155.238281 C 136.613281 154.933594 137.648438 154.695312 138.660156 154.339844 C 139.644531 153.921875 140.652344 153.546875 141.644531 153.089844 C 142.597656 152.582031 143.613281 152.140625 144.535156 151.558594 C 145.460938 150.964844 146.429688 150.421875 147.296875 149.742188 C 149.140625 148.480469 150.839844 147.015625 152.449219 145.421875 Z M 152.449219 145.421875 " fill-opacity="1" fill-rule="nonzero"/></g></g></g><g transform="matrix(1, 0, 0, 1, 96, 169)"><g clip-path="url(#4eb1c197a8)"><g fill="#09264d" fill-opacity="1"><g transform="translate(0.59334, 30.756863)"><g><path d="M 2.6875 -22.703125 L 13 -22.703125 C 15.46875 -22.703125 17.644531 -22.234375 19.53125 -21.296875 C 21.425781 -20.359375 22.898438 -19.035156 23.953125 -17.328125 C 25.003906 -15.617188 25.53125 -13.628906 25.53125 -11.359375 C 25.53125 -9.085938 25.003906 -7.097656 23.953125 -5.390625 C 22.898438 -3.679688 21.425781 -2.351562 19.53125 -1.40625 C 17.644531 -0.46875 15.46875 0 13 0 L 2.6875 0 Z M 12.75 -4.3125 C 15.019531 -4.3125 16.828125 -4.941406 18.171875 -6.203125 C 19.523438 -7.472656 20.203125 -9.191406 20.203125 -11.359375 C 20.203125 -13.515625 19.523438 -15.222656 18.171875 -16.484375 C 16.828125 -17.753906 15.019531 -18.390625 12.75 -18.390625 L 7.953125 -18.390625 L 7.953125 -4.3125 Z M 12.75 -4.3125 "/></g></g></g><g fill="#09264d" fill-opacity="1"><g transform="translate(27.387283, 30.756863)"><g><path d="M 20.28125 -4.21875 L 20.28125 0 L 2.6875 0 L 2.6875 -22.703125 L 19.859375 -22.703125 L 19.859375 -18.484375 L 7.921875 -18.484375 L 7.921875 -13.5625 L 18.453125 -13.5625 L 18.453125 -9.46875 L 7.921875 -9.46875 L 7.921875 -4.21875 Z M 20.28125 -4.21875 "/></g></g></g><g fill="#09264d" fill-opacity="1"><g transform="translate(49.15332, 30.756863)"><g><path d="M 23.515625 -22.703125 L 23.515625 0 L 19.203125 0 L 7.875 -13.78125 L 7.875 0 L 2.6875 0 L 2.6875 -22.703125 L 7.03125 -22.703125 L 18.328125 -8.921875 L 18.328125 -22.703125 Z M 23.515625 -22.703125 "/></g></g></g><g fill="#09264d" fill-opacity="1"><g transform="translate(75.363393, 30.756863)"><g><path d="M 7.390625 -18.421875 L 0.125 -18.421875 L 0.125 -22.703125 L 19.921875 -22.703125 L 19.921875 -18.421875 L 12.65625 -18.421875 L 12.65625 0 L 7.390625 0 Z M 7.390625 -18.421875 "/></g></g></g><g fill="#09264d" fill-opacity="1"><g transform="translate(95.410196, 30.756863)"><g><path d="M 17.640625 -4.859375 L 7.109375 -4.859375 L 5.09375 0 L -0.296875 0 L 9.828125 -22.703125 L 15.015625 -22.703125 L 25.171875 0 L 19.65625 0 Z M 15.984375 -8.859375 L 12.390625 -17.546875 L 8.796875 -8.859375 Z M 15.984375 -8.859375 "/></g></g></g></g></g><g fill="#5ce1e6" fill-opacity="1"><g transform="translate(220.896933, 200.877116)"><g><path d="M 23.5 -22.6875 L 23.5 0 L 19.1875 0 L 7.875 -13.765625 L 7.875 0 L 2.6875 0 L 2.6875 -22.6875 L 7.03125 -22.6875 L 18.3125 -8.90625 L 18.3125 -22.6875 Z M 23.5 -22.6875 "/></g></g></g><g fill="#5ce1e6" fill-opacity="1"><g transform="translate(247.392625, 200.877116)"><g><path d="M 20.25 -4.21875 L 20.25 0 L 2.6875 0 L 2.6875 -22.6875 L 19.828125 -22.6875 L 19.828125 -18.46875 L 7.90625 -18.46875 L 7.90625 -13.546875 L 18.4375 -13.546875 L 18.4375 -9.46875 L 7.90625 -9.46875 L 7.90625 -4.21875 Z M 20.25 -4.21875 "/></g></g></g><g fill="#5ce1e6" fill-opacity="1"><g transform="translate(269.45079, 200.877116)"><g><path d="M 7.390625 -18.40625 L 0.125 -18.40625 L 0.125 -22.6875 L 19.890625 -22.6875 L 19.890625 -18.40625 L 12.640625 -18.40625 L 12.640625 0 L 7.390625 0 Z M 7.390625 -18.40625 "/></g></g></g></svg>